{
	"asset":{
		"generator":"Khronos glTF Blender I/O v4.4.55",
		"version":"2.0"
	},
	"extensionsUsed":[
		"KHR_materials_specular",
		"KHR_materials_ior"
	],
	"scene":0,
	"scenes":[
		{
			"name":"Scene",
			"nodes":[
				0
			]
		}
	],
	"nodes":[
		{
			"mesh":0,
			"name":"Cylinder"
		}
	],
	"materials":[
		{
			"doubleSided":true,
			"name":"Concrete",
			"normalTexture":{
				"index":0,
				"texCoord":1
			},
			"pbrMetallicRoughness":{
				"baseColorTexture":{
					"index":1,
					"texCoord":1
				},
				"metallicFactor":0,
				"metallicRoughnessTexture":{
					"index":2,
					"texCoord":1
				}
			}
		},
		{
			"doubleSided":true,
			"extensions":{
				"KHR_materials_specular":{
					"specularColorTexture":{
						"index":3,
						"texCoord":1
					}
				},
				"KHR_materials_ior":{
					"ior":1.4500000476837158
				}
			},
			"name":"Gold metal (Imperfections)",
			"normalTexture":{
				"index":4,
				"texCoord":1
			},
			"pbrMetallicRoughness":{
				"baseColorTexture":{
					"index":5,
					"texCoord":1
				},
				"metallicRoughnessTexture":{
					"index":6,
					"texCoord":1
				}
			}
		}
	],
	"meshes":[
		{
			"name":"Cylinder",
			"primitives":[
				{
					"attributes":{
						"POSITION":0,
						"NORMAL":1,
						"TEXCOORD_0":2,
						"TEXCOORD_1":3
					},
					"indices":4,
					"material":0
				},
				{
					"attributes":{
						"POSITION":5,
						"NORMAL":6,
						"TEXCOORD_0":7,
						"TEXCOORD_1":8
					},
					"indices":9,
					"material":1
				}
			]
		}
	],
	"textures":[
		{
			"sampler":0,
			"source":0
		},
		{
			"sampler":0,
			"source":1
		},
		{
			"sampler":0,
			"source":2
		},
		{
			"sampler":0,
			"source":3
		},
		{
			"sampler":0,
			"source":4
		},
		{
			"sampler":0,
			"source":5
		},
		{
			"sampler":0,
			"source":6
		}
	],
	"images":[
		{
			"mimeType":"image/jpeg",
			"name":"concrete_22_normal",
			"uri":"concrete_22_normal.jpg"
		},
		{
			"mimeType":"image/jpeg",
			"name":"concrete_22_color",
			"uri":"concrete_22_color.jpg"
		},
		{
			"mimeType":"image/png",
			"name":"concrete_22_roughness",
			"uri":"concrete_22_roughness.png"
		},
		{
			"mimeType":"image/jpeg",
			"name":"specu ",
			"uri":"specu%20.jpg"
		},
		{
			"mimeType":"image/jpeg",
			"name":"normal ",
			"uri":"normal%20.jpg"
		},
		{
			"mimeType":"image/jpeg",
			"name":"basecolor",
			"uri":"basecolor.jpg"
		},
		{
			"mimeType":"image/png",
			"name":"Metallic-Rough",
			"uri":"Metallic-Rough.png"
		}
	],
	"accessors":[
		{
			"bufferView":0,
			"componentType":5126,
			"count":755,
			"max":[
				5.185876369476318,
				4.376692771911621,
				5.185875415802002
			],
			"min":[
				-5.185875415802002,
				-0.09991468489170074,
				-5.185875415802002
			],
			"type":"VEC3"
		},
		{
			"bufferView":1,
			"componentType":5126,
			"count":755,
			"type":"VEC3"
		},
		{
			"bufferView":2,
			"componentType":5126,
			"count":755,
			"type":"VEC2"
		},
		{
			"bufferView":3,
			"componentType":5126,
			"count":755,
			"type":"VEC2"
		},
		{
			"bufferView":4,
			"componentType":5123,
			"count":1728,
			"type":"SCALAR"
		},
		{
			"bufferView":5,
			"componentType":5126,
			"count":8361,
			"max":[
				5.034062385559082,
				10.099727630615234,
				0.33499929308891296
			],
			"min":[
				-4.822890281677246,
				5.555400848388672,
				-0.33500102162361145
			],
			"type":"VEC3"
		},
		{
			"bufferView":6,
			"componentType":5126,
			"count":8361,
			"type":"VEC3"
		},
		{
			"bufferView":7,
			"componentType":5126,
			"count":8361,
			"type":"VEC2"
		},
		{
			"bufferView":8,
			"componentType":5126,
			"count":8361,
			"type":"VEC2"
		},
		{
			"bufferView":9,
			"componentType":5123,
			"count":39936,
			"type":"SCALAR"
		}
	],
	"bufferViews":[
		{
			"buffer":0,
			"byteLength":9060,
			"byteOffset":0,
			"target":34962
		},
		{
			"buffer":0,
			"byteLength":9060,
			"byteOffset":9060,
			"target":34962
		},
		{
			"buffer":0,
			"byteLength":6040,
			"byteOffset":18120,
			"target":34962
		},
		{
			"buffer":0,
			"byteLength":6040,
			"byteOffset":24160,
			"target":34962
		},
		{
			"buffer":0,
			"byteLength":3456,
			"byteOffset":30200,
			"target":34963
		},
		{
			"buffer":0,
			"byteLength":100332,
			"byteOffset":33656,
			"target":34962
		},
		{
			"buffer":0,
			"byteLength":100332,
			"byteOffset":133988,
			"target":34962
		},
		{
			"buffer":0,
			"byteLength":66888,
			"byteOffset":234320,
			"target":34962
		},
		{
			"buffer":0,
			"byteLength":66888,
			"byteOffset":301208,
			"target":34962
		},
		{
			"buffer":0,
			"byteLength":79872,
			"byteOffset":368096,
			"target":34963
		}
	],
	"samplers":[
		{
			"magFilter":9729,
			"minFilter":9987
		}
	],
	"buffers":[
		{
			"byteLength":447968,
			"uri":"Untitled.bin"
		}
	]
}
