{
	"asset":{
		"generator":"Khronos glTF Blender I/O v4.4.55",
		"version":"2.0"
	},
	"scene":0,
	"scenes":[
		{
			"name":"Scene",
			"nodes":[
				0
			]
		}
	],
	"nodes":[
		{
			"mesh":0,
			"name":"Icosphere.004",
			"scale":[
				1.1128510236740112,
				1.1128510236740112,
				1.1128510236740112
			]
		}
	],
	"materials":[
		{
			"doubleSided":true,
			"name":"Material",
			"pbrMetallicRoughness":{
				"baseColorFactor":[
					0,
					0,
					0,
					1
				],
				"metallicFactor":0,
				"roughnessFactor":0.5
			}
		},
		{
			"doubleSided":true,
			"name":"Material.004",
			"pbrMetallicRoughness":{
				"baseColorFactor":[
					0,
					0,
					0,
					1
				],
				"metallicFactor":0
			}
		},
		{
			"doubleSided":true,
			"name":"Material.001",
			"pbrMetallicRoughness":{
				"baseColorFactor":[
					0.2320287823677063,
					0.06624246388673782,
					0,
					1
				],
				"metallicFactor":0
			}
		},
		{
			"doubleSided":true,
			"name":"Material.006",
			"pbrMetallicRoughness":{
				"baseColorFactor":[
					0.12331530451774597,
					0.12331530451774597,
					0.12331530451774597,
					1
				],
				"metallicFactor":0
			}
		}
	],
	"meshes":[
		{
			"name":"Icosphere.004",
			"primitives":[
				{
					"attributes":{
						"POSITION":0,
						"NORMAL":1,
						"TEXCOORD_0":2
					},
					"indices":3,
					"material":0
				},
				{
					"attributes":{
						"POSITION":4,
						"NORMAL":5,
						"TEXCOORD_0":6
					},
					"indices":7,
					"material":1
				},
				{
					"attributes":{
						"POSITION":8,
						"NORMAL":9,
						"TEXCOORD_0":10
					},
					"indices":11,
					"material":2
				},
				{
					"attributes":{
						"POSITION":12,
						"NORMAL":13,
						"TEXCOORD_0":14
					},
					"indices":15,
					"material":3
				}
			]
		}
	],
	"accessors":[
		{
			"bufferView":0,
			"componentType":5126,
			"count":206,
			"max":[
				0.1395936906337738,
				4.455465793609619,
				1.3271211385726929
			],
			"min":[
				-0.1395936906337738,
				4.3106818199157715,
				1.1929824352264404
			],
			"type":"VEC3"
		},
		{
			"bufferView":1,
			"componentType":5126,
			"count":206,
			"type":"VEC3"
		},
		{
			"bufferView":2,
			"componentType":5126,
			"count":206,
			"type":"VEC2"
		},
		{
			"bufferView":3,
			"componentType":5123,
			"count":228,
			"type":"SCALAR"
		},
		{
			"bufferView":4,
			"componentType":5126,
			"count":6867,
			"max":[
				0.8536490201950073,
				4.690361976623535,
				1.3163042068481445
			],
			"min":[
				-0.8536490201950073,
				0.20415589213371277,
				-2.240872621536255
			],
			"type":"VEC3"
		},
		{
			"bufferView":5,
			"componentType":5126,
			"count":6867,
			"type":"VEC3"
		},
		{
			"bufferView":6,
			"componentType":5126,
			"count":6867,
			"type":"VEC2"
		},
		{
			"bufferView":7,
			"componentType":5123,
			"count":8760,
			"type":"SCALAR"
		},
		{
			"bufferView":8,
			"componentType":5126,
			"count":7719,
			"max":[
				0.7913097739219666,
				4.606963157653809,
				1.3248625993728638
			],
			"min":[
				-0.7913097739219666,
				-0.030184825882315636,
				-1.8744901418685913
			],
			"type":"VEC3"
		},
		{
			"bufferView":9,
			"componentType":5126,
			"count":7719,
			"type":"VEC3"
		},
		{
			"bufferView":10,
			"componentType":5126,
			"count":7719,
			"type":"VEC2"
		},
		{
			"bufferView":11,
			"componentType":5123,
			"count":12114,
			"type":"SCALAR"
		},
		{
			"bufferView":12,
			"componentType":5126,
			"count":70,
			"max":[
				1.9871469736099243,
				0,
				2.18765926361084
			],
			"min":[
				-1.9871469736099243,
				-1.7971856594085693,
				-3.1962947845458984
			],
			"type":"VEC3"
		},
		{
			"bufferView":13,
			"componentType":5126,
			"count":70,
			"type":"VEC3"
		},
		{
			"bufferView":14,
			"componentType":5126,
			"count":70,
			"type":"VEC2"
		},
		{
			"bufferView":15,
			"componentType":5123,
			"count":168,
			"type":"SCALAR"
		}
	],
	"bufferViews":[
		{
			"buffer":0,
			"byteLength":2472,
			"byteOffset":0,
			"target":34962
		},
		{
			"buffer":0,
			"byteLength":2472,
			"byteOffset":2472,
			"target":34962
		},
		{
			"buffer":0,
			"byteLength":1648,
			"byteOffset":4944,
			"target":34962
		},
		{
			"buffer":0,
			"byteLength":456,
			"byteOffset":6592,
			"target":34963
		},
		{
			"buffer":0,
			"byteLength":82404,
			"byteOffset":7048,
			"target":34962
		},
		{
			"buffer":0,
			"byteLength":82404,
			"byteOffset":89452,
			"target":34962
		},
		{
			"buffer":0,
			"byteLength":54936,
			"byteOffset":171856,
			"target":34962
		},
		{
			"buffer":0,
			"byteLength":17520,
			"byteOffset":226792,
			"target":34963
		},
		{
			"buffer":0,
			"byteLength":92628,
			"byteOffset":244312,
			"target":34962
		},
		{
			"buffer":0,
			"byteLength":92628,
			"byteOffset":336940,
			"target":34962
		},
		{
			"buffer":0,
			"byteLength":61752,
			"byteOffset":429568,
			"target":34962
		},
		{
			"buffer":0,
			"byteLength":24228,
			"byteOffset":491320,
			"target":34963
		},
		{
			"buffer":0,
			"byteLength":840,
			"byteOffset":515548,
			"target":34962
		},
		{
			"buffer":0,
			"byteLength":840,
			"byteOffset":516388,
			"target":34962
		},
		{
			"buffer":0,
			"byteLength":560,
			"byteOffset":517228,
			"target":34962
		},
		{
			"buffer":0,
			"byteLength":336,
			"byteOffset":517788,
			"target":34963
		}
	],
	"buffers":[
		{
			"byteLength":518124,
			"uri":"Rambo.bin"
		}
	]
}
