{
	"asset":{
		"generator":"Khronos glTF Blender I/O v4.4.55",
		"version":"2.0"
	},
	"scene":0,
	"scenes":[
		{
			"name":"Scene",
			"nodes":[
				0
			]
		}
	],
	"nodes":[
		{
			"mesh":0,
			"name":"Plane.001",
			"rotation":[
				0,
				-0.7071068286895752,
				0,
				0.7071068286895752
			]
		}
	],
	"materials":[
		{
			"doubleSided":true,
			"name":"Material",
			"pbrMetallicRoughness":{
				"baseColorTexture":{
					"index":0,
					"texCoord":1
				},
				"metallicFactor":0
			}
		},
		{
			"doubleSided":true,
			"name":"Concrete",
			"normalTexture":{
				"index":1,
				"texCoord":1
			},
			"pbrMetallicRoughness":{
				"baseColorTexture":{
					"index":2,
					"texCoord":1
				},
				"metallicFactor":0,
				"metallicRoughnessTexture":{
					"index":3,
					"texCoord":1
				}
			}
		}
	],
	"meshes":[
		{
			"name":"Plane.001",
			"primitives":[
				{
					"attributes":{
						"POSITION":0,
						"NORMAL":1,
						"TEXCOORD_0":2,
						"TEXCOORD_1":3
					},
					"indices":4,
					"material":0
				},
				{
					"attributes":{
						"POSITION":5,
						"NORMAL":6,
						"TEXCOORD_0":7,
						"TEXCOORD_1":8
					},
					"indices":9,
					"material":1
				}
			]
		}
	],
	"textures":[
		{
			"sampler":0,
			"source":0
		},
		{
			"sampler":0,
			"source":1
		},
		{
			"sampler":0,
			"source":2
		},
		{
			"sampler":0,
			"source":3
		}
	],
	"images":[
		{
			"mimeType":"image/png",
			"name":"mmmmmmmmmmSDFGHJKJHGFDmmmmmmmmmmmmmmmmmmmmmmmmm (2)",
			"uri":"mmmmmmmmmmSDFGHJKJHGFDmmmmmmmmmmmmmmmmmmmmmmmmm%202.png"
		},
		{
			"mimeType":"image/jpeg",
			"name":"concrete_12_normal",
			"uri":"concrete_12_normal.jpg"
		},
		{
			"mimeType":"image/jpeg",
			"name":"concrete_12_color",
			"uri":"concrete_12_color.jpg"
		},
		{
			"mimeType":"image/png",
			"name":"concrete_12_roughness",
			"uri":"concrete_12_roughness.png"
		}
	],
	"accessors":[
		{
			"bufferView":0,
			"componentType":5126,
			"count":4,
			"max":[
				4.146420955657959,
				2.2799531507189386e-07,
				2.6079623699188232
			],
			"min":[
				-4.146420955657959,
				-2.2799531507189386e-07,
				-2.6079623699188232
			],
			"type":"VEC3"
		},
		{
			"bufferView":1,
			"componentType":5126,
			"count":4,
			"type":"VEC3"
		},
		{
			"bufferView":2,
			"componentType":5126,
			"count":4,
			"type":"VEC2"
		},
		{
			"bufferView":3,
			"componentType":5126,
			"count":4,
			"type":"VEC2"
		},
		{
			"bufferView":4,
			"componentType":5123,
			"count":6,
			"type":"SCALAR"
		},
		{
			"bufferView":5,
			"componentType":5126,
			"count":129,
			"max":[
				4.9902873039245605,
				0.2982257604598999,
				3.39744234085083
			],
			"min":[
				-4.9902873039245605,
				-0.08249156177043915,
				-3.39744234085083
			],
			"type":"VEC3"
		},
		{
			"bufferView":6,
			"componentType":5126,
			"count":129,
			"type":"VEC3"
		},
		{
			"bufferView":7,
			"componentType":5126,
			"count":129,
			"type":"VEC2"
		},
		{
			"bufferView":8,
			"componentType":5126,
			"count":129,
			"type":"VEC2"
		},
		{
			"bufferView":9,
			"componentType":5123,
			"count":312,
			"type":"SCALAR"
		}
	],
	"bufferViews":[
		{
			"buffer":0,
			"byteLength":48,
			"byteOffset":0,
			"target":34962
		},
		{
			"buffer":0,
			"byteLength":48,
			"byteOffset":48,
			"target":34962
		},
		{
			"buffer":0,
			"byteLength":32,
			"byteOffset":96,
			"target":34962
		},
		{
			"buffer":0,
			"byteLength":32,
			"byteOffset":128,
			"target":34962
		},
		{
			"buffer":0,
			"byteLength":12,
			"byteOffset":160,
			"target":34963
		},
		{
			"buffer":0,
			"byteLength":1548,
			"byteOffset":172,
			"target":34962
		},
		{
			"buffer":0,
			"byteLength":1548,
			"byteOffset":1720,
			"target":34962
		},
		{
			"buffer":0,
			"byteLength":1032,
			"byteOffset":3268,
			"target":34962
		},
		{
			"buffer":0,
			"byteLength":1032,
			"byteOffset":4300,
			"target":34962
		},
		{
			"buffer":0,
			"byteLength":624,
			"byteOffset":5332,
			"target":34963
		}
	],
	"samplers":[
		{
			"magFilter":9729,
			"minFilter":9987
		}
	],
	"buffers":[
		{
			"byteLength":5956,
			"uri":"Frame1.bin"
		}
	]
}
