{
	"asset":{
		"generator":"Khronos glTF Blender I/O v4.4.55",
		"version":"2.0"
	},
	"scene":0,
	"scenes":[
		{
			"name":"Scene",
			"nodes":[
				0
			]
		}
	],
	"nodes":[
		{
			"mesh":0,
			"name":"Plane",
			"scale":[
				3.000413417816162,
				3.000413417816162,
				3.000413417816162
			]
		}
	],
	"materials":[
		{
			"doubleSided":true,
			"name":"Concrete.001",
			"normalTexture":{
				"index":0,
				"texCoord":1
			},
			"pbrMetallicRoughness":{
				"baseColorTexture":{
					"index":1,
					"texCoord":1
				},
				"metallicFactor":0,
				"metallicRoughnessTexture":{
					"index":2,
					"texCoord":1
				}
			}
		},
		{
			"doubleSided":true,
			"name":"Material.001",
			"pbrMetallicRoughness":{
				"baseColorTexture":{
					"index":3,
					"texCoord":1
				},
				"metallicFactor":0
			}
		}
	],
	"meshes":[
		{
			"name":"Plane",
			"primitives":[
				{
					"attributes":{
						"POSITION":0,
						"NORMAL":1,
						"TEXCOORD_0":2,
						"TEXCOORD_1":3
					},
					"indices":4,
					"material":0
				},
				{
					"attributes":{
						"POSITION":5,
						"NORMAL":6,
						"TEXCOORD_0":7,
						"TEXCOORD_1":8
					},
					"indices":9,
					"material":1
				}
			]
		}
	],
	"textures":[
		{
			"sampler":0,
			"source":0
		},
		{
			"sampler":0,
			"source":1
		},
		{
			"sampler":0,
			"source":2
		},
		{
			"sampler":0,
			"source":3
		}
	],
	"images":[
		{
			"mimeType":"image/jpeg",
			"name":"concrete_12_normal",
			"uri":"concrete_12_normal.jpg"
		},
		{
			"mimeType":"image/jpeg",
			"name":"concrete_12_color",
			"uri":"concrete_12_color.jpg"
		},
		{
			"mimeType":"image/png",
			"name":"concrete_12_roughness",
			"uri":"concrete_12_roughness.png"
		},
		{
			"mimeType":"image/png",
			"name":"Untitlenkhgyftdxrtubhnjmoid",
			"uri":"Untitlenkhgyftdxrtubhnjmoid.png"
		}
	],
	"accessors":[
		{
			"bufferView":0,
			"componentType":5126,
			"count":84,
			"max":[
				4.767129421234131,
				0.2982257604598999,
				3.1886069774627686
			],
			"min":[
				-4.767129421234131,
				-0.08249156177043915,
				-3.1886069774627686
			],
			"type":"VEC3"
		},
		{
			"bufferView":1,
			"componentType":5126,
			"count":84,
			"type":"VEC3"
		},
		{
			"bufferView":2,
			"componentType":5126,
			"count":84,
			"type":"VEC2"
		},
		{
			"bufferView":3,
			"componentType":5126,
			"count":84,
			"type":"VEC2"
		},
		{
			"bufferView":4,
			"componentType":5123,
			"count":150,
			"type":"SCALAR"
		},
		{
			"bufferView":5,
			"componentType":5126,
			"count":4,
			"max":[
				4.424189567565918,
				0,
				2.8771016597747803
			],
			"min":[
				-4.424189567565918,
				0,
				-2.8771016597747803
			],
			"type":"VEC3"
		},
		{
			"bufferView":6,
			"componentType":5126,
			"count":4,
			"type":"VEC3"
		},
		{
			"bufferView":7,
			"componentType":5126,
			"count":4,
			"type":"VEC2"
		},
		{
			"bufferView":8,
			"componentType":5126,
			"count":4,
			"type":"VEC2"
		},
		{
			"bufferView":9,
			"componentType":5123,
			"count":6,
			"type":"SCALAR"
		}
	],
	"bufferViews":[
		{
			"buffer":0,
			"byteLength":1008,
			"byteOffset":0,
			"target":34962
		},
		{
			"buffer":0,
			"byteLength":1008,
			"byteOffset":1008,
			"target":34962
		},
		{
			"buffer":0,
			"byteLength":672,
			"byteOffset":2016,
			"target":34962
		},
		{
			"buffer":0,
			"byteLength":672,
			"byteOffset":2688,
			"target":34962
		},
		{
			"buffer":0,
			"byteLength":300,
			"byteOffset":3360,
			"target":34963
		},
		{
			"buffer":0,
			"byteLength":48,
			"byteOffset":3660,
			"target":34962
		},
		{
			"buffer":0,
			"byteLength":48,
			"byteOffset":3708,
			"target":34962
		},
		{
			"buffer":0,
			"byteLength":32,
			"byteOffset":3756,
			"target":34962
		},
		{
			"buffer":0,
			"byteLength":32,
			"byteOffset":3788,
			"target":34962
		},
		{
			"buffer":0,
			"byteLength":12,
			"byteOffset":3820,
			"target":34963
		}
	],
	"samplers":[
		{
			"magFilter":9729,
			"minFilter":9987
		}
	],
	"buffers":[
		{
			"byteLength":3832,
			"uri":"Frame1.bin"
		}
	]
}
