{
	"asset":{
		"generator":"Khronos glTF Blender I/O v4.4.55",
		"version":"2.0"
	},
	"scene":0,
	"scenes":[
		{
			"name":"Scene",
			"nodes":[
				0
			]
		}
	],
	"nodes":[
		{
			"mesh":0,
			"name":"Plane.007",
			"translation":[
				-5.845119953155518,
				0,
				0
			]
		}
	],
	"materials":[
		{
			"doubleSided":true,
			"name":"Material",
			"pbrMetallicRoughness":{
				"baseColorFactor":[
					0,
					0,
					0,
					1
				],
				"metallicFactor":0,
				"roughnessFactor":0.5
			}
		},
		{
			"doubleSided":true,
			"name":"Material.004",
			"pbrMetallicRoughness":{
				"baseColorFactor":[
					0,
					0,
					0,
					1
				],
				"metallicFactor":0
			}
		},
		{
			"doubleSided":true,
			"name":"Material.001",
			"pbrMetallicRoughness":{
				"baseColorFactor":[
					0.2320287823677063,
					0.06624246388673782,
					0,
					1
				],
				"metallicFactor":0
			}
		},
		{
			"doubleSided":true,
			"name":"Material.003",
			"pbrMetallicRoughness":{
				"metallicFactor":0,
				"roughnessFactor":0.5
			}
		},
		{
			"doubleSided":true,
			"name":"Material.002",
			"pbrMetallicRoughness":{
				"baseColorFactor":[
					1,
					0.2921018600463867,
					0.39878755807876587,
					1
				],
				"metallicFactor":0,
				"roughnessFactor":0.5
			}
		},
		{
			"doubleSided":true,
			"name":"Material.005",
			"pbrMetallicRoughness":{
				"baseColorFactor":[
					0.09201821684837341,
					0.019542012363672256,
					0.027866680175065994,
					1
				],
				"metallicFactor":0,
				"roughnessFactor":0.5
			}
		},
		{
			"doubleSided":true,
			"name":"Material.006",
			"pbrMetallicRoughness":{
				"baseColorFactor":[
					0.12331530451774597,
					0.12331530451774597,
					0.12331530451774597,
					1
				],
				"metallicFactor":0
			}
		}
	],
	"meshes":[
		{
			"name":"Plane.005",
			"primitives":[
				{
					"attributes":{
						"POSITION":0,
						"NORMAL":1,
						"TEXCOORD_0":2
					},
					"indices":3,
					"material":0
				},
				{
					"attributes":{
						"POSITION":4,
						"NORMAL":5,
						"TEXCOORD_0":6
					},
					"indices":7,
					"material":1
				},
				{
					"attributes":{
						"POSITION":8,
						"NORMAL":9,
						"TEXCOORD_0":10
					},
					"indices":11,
					"material":2
				},
				{
					"attributes":{
						"POSITION":12,
						"NORMAL":13,
						"TEXCOORD_0":14
					},
					"indices":15,
					"material":3
				},
				{
					"attributes":{
						"POSITION":16,
						"NORMAL":17,
						"TEXCOORD_0":18
					},
					"indices":19,
					"material":4
				},
				{
					"attributes":{
						"POSITION":20,
						"NORMAL":21,
						"TEXCOORD_0":22
					},
					"indices":23,
					"material":5
				},
				{
					"attributes":{
						"POSITION":24,
						"NORMAL":25,
						"TEXCOORD_0":26
					},
					"indices":27,
					"material":6
				}
			]
		}
	],
	"accessors":[
		{
			"bufferView":0,
			"componentType":5126,
			"count":214,
			"max":[
				0.139593705534935,
				4.443700790405273,
				1.3271212577819824
			],
			"min":[
				-0.139593705534935,
				4.298916816711426,
				1.19298255443573
			],
			"type":"VEC3"
		},
		{
			"bufferView":1,
			"componentType":5126,
			"count":214,
			"type":"VEC3"
		},
		{
			"bufferView":2,
			"componentType":5126,
			"count":214,
			"type":"VEC2"
		},
		{
			"bufferView":3,
			"componentType":5123,
			"count":240,
			"type":"SCALAR"
		},
		{
			"bufferView":4,
			"componentType":5126,
			"count":6726,
			"max":[
				0.8536491394042969,
				4.678597450256348,
				1.3161541223526
			],
			"min":[
				-0.8536491394042969,
				0.19239044189453125,
				-2.815317153930664
			],
			"type":"VEC3"
		},
		{
			"bufferView":5,
			"componentType":5126,
			"count":6726,
			"type":"VEC3"
		},
		{
			"bufferView":6,
			"componentType":5126,
			"count":6726,
			"type":"VEC2"
		},
		{
			"bufferView":7,
			"componentType":5123,
			"count":9030,
			"type":"SCALAR"
		},
		{
			"bufferView":8,
			"componentType":5126,
			"count":8041,
			"max":[
				0.7913098931312561,
				4.606964111328125,
				1.3248628377914429
			],
			"min":[
				-0.7913098931312561,
				-0.030184829607605934,
				-3.0022358894348145
			],
			"type":"VEC3"
		},
		{
			"bufferView":9,
			"componentType":5126,
			"count":8041,
			"type":"VEC3"
		},
		{
			"bufferView":10,
			"componentType":5126,
			"count":8041,
			"type":"VEC2"
		},
		{
			"bufferView":11,
			"componentType":5123,
			"count":12528,
			"type":"SCALAR"
		},
		{
			"bufferView":12,
			"componentType":5126,
			"count":3584,
			"max":[
				0.264559268951416,
				3.8942153453826904,
				1.2148504257202148
			],
			"min":[
				-0.264559268951416,
				3.752595901489258,
				0.6757282018661499
			],
			"type":"VEC3"
		},
		{
			"bufferView":13,
			"componentType":5126,
			"count":3584,
			"type":"VEC3"
		},
		{
			"bufferView":14,
			"componentType":5126,
			"count":3584,
			"type":"VEC2"
		},
		{
			"bufferView":15,
			"componentType":5123,
			"count":5292,
			"type":"SCALAR"
		},
		{
			"bufferView":16,
			"componentType":5126,
			"count":384,
			"max":[
				0.11407637596130371,
				3.953221082687378,
				1.4818907976150513
			],
			"min":[
				-0.11407637596130371,
				3.732473373413086,
				0.6036659479141235
			],
			"type":"VEC3"
		},
		{
			"bufferView":17,
			"componentType":5126,
			"count":384,
			"type":"VEC3"
		},
		{
			"bufferView":18,
			"componentType":5126,
			"count":384,
			"type":"VEC2"
		},
		{
			"bufferView":19,
			"componentType":5123,
			"count":732,
			"type":"SCALAR"
		},
		{
			"bufferView":20,
			"componentType":5126,
			"count":60,
			"max":[
				0.321058988571167,
				4.030208587646484,
				1.220963954925537
			],
			"min":[
				-0.321058988571167,
				3.7902493476867676,
				0.6923640370368958
			],
			"type":"VEC3"
		},
		{
			"bufferView":21,
			"componentType":5126,
			"count":60,
			"type":"VEC3"
		},
		{
			"bufferView":22,
			"componentType":5126,
			"count":60,
			"type":"VEC2"
		},
		{
			"bufferView":23,
			"componentType":5123,
			"count":144,
			"type":"SCALAR"
		},
		{
			"bufferView":24,
			"componentType":5126,
			"count":70,
			"max":[
				2.2113986015319824,
				0,
				2.4345388412475586
			],
			"min":[
				-2.2113986015319824,
				-2,
				-3.557000160217285
			],
			"type":"VEC3"
		},
		{
			"bufferView":25,
			"componentType":5126,
			"count":70,
			"type":"VEC3"
		},
		{
			"bufferView":26,
			"componentType":5126,
			"count":70,
			"type":"VEC2"
		},
		{
			"bufferView":27,
			"componentType":5123,
			"count":168,
			"type":"SCALAR"
		}
	],
	"bufferViews":[
		{
			"buffer":0,
			"byteLength":2568,
			"byteOffset":0,
			"target":34962
		},
		{
			"buffer":0,
			"byteLength":2568,
			"byteOffset":2568,
			"target":34962
		},
		{
			"buffer":0,
			"byteLength":1712,
			"byteOffset":5136,
			"target":34962
		},
		{
			"buffer":0,
			"byteLength":480,
			"byteOffset":6848,
			"target":34963
		},
		{
			"buffer":0,
			"byteLength":80712,
			"byteOffset":7328,
			"target":34962
		},
		{
			"buffer":0,
			"byteLength":80712,
			"byteOffset":88040,
			"target":34962
		},
		{
			"buffer":0,
			"byteLength":53808,
			"byteOffset":168752,
			"target":34962
		},
		{
			"buffer":0,
			"byteLength":18060,
			"byteOffset":222560,
			"target":34963
		},
		{
			"buffer":0,
			"byteLength":96492,
			"byteOffset":240620,
			"target":34962
		},
		{
			"buffer":0,
			"byteLength":96492,
			"byteOffset":337112,
			"target":34962
		},
		{
			"buffer":0,
			"byteLength":64328,
			"byteOffset":433604,
			"target":34962
		},
		{
			"buffer":0,
			"byteLength":25056,
			"byteOffset":497932,
			"target":34963
		},
		{
			"buffer":0,
			"byteLength":43008,
			"byteOffset":522988,
			"target":34962
		},
		{
			"buffer":0,
			"byteLength":43008,
			"byteOffset":565996,
			"target":34962
		},
		{
			"buffer":0,
			"byteLength":28672,
			"byteOffset":609004,
			"target":34962
		},
		{
			"buffer":0,
			"byteLength":10584,
			"byteOffset":637676,
			"target":34963
		},
		{
			"buffer":0,
			"byteLength":4608,
			"byteOffset":648260,
			"target":34962
		},
		{
			"buffer":0,
			"byteLength":4608,
			"byteOffset":652868,
			"target":34962
		},
		{
			"buffer":0,
			"byteLength":3072,
			"byteOffset":657476,
			"target":34962
		},
		{
			"buffer":0,
			"byteLength":1464,
			"byteOffset":660548,
			"target":34963
		},
		{
			"buffer":0,
			"byteLength":720,
			"byteOffset":662012,
			"target":34962
		},
		{
			"buffer":0,
			"byteLength":720,
			"byteOffset":662732,
			"target":34962
		},
		{
			"buffer":0,
			"byteLength":480,
			"byteOffset":663452,
			"target":34962
		},
		{
			"buffer":0,
			"byteLength":288,
			"byteOffset":663932,
			"target":34963
		},
		{
			"buffer":0,
			"byteLength":840,
			"byteOffset":664220,
			"target":34962
		},
		{
			"buffer":0,
			"byteLength":840,
			"byteOffset":665060,
			"target":34962
		},
		{
			"buffer":0,
			"byteLength":560,
			"byteOffset":665900,
			"target":34962
		},
		{
			"buffer":0,
			"byteLength":336,
			"byteOffset":666460,
			"target":34963
		}
	],
	"buffers":[
		{
			"byteLength":666796,
			"uri":"Rambo.bin"
		}
	]
}
