{
	"asset":{
		"generator":"Khronos glTF Blender I/O v4.4.55",
		"version":"2.0"
	},
	"extensionsUsed":[
		"KHR_materials_specular",
		"KHR_materials_ior",
		"KHR_texture_transform"
	],
	"extensionsRequired":[
		"KHR_texture_transform"
	],
	"scene":0,
	"scenes":[
		{
			"name":"Scene",
			"nodes":[
				0
			]
		}
	],
	"nodes":[
		{
			"mesh":0,
			"name":"Cube.007",
			"translation":[
				0,
				13.497199058532715,
				0
			]
		}
	],
	"materials":[
		{
			"doubleSided":true,
			"extensions":{
				"KHR_materials_specular":{
					"specularColorFactor":[
						2.0,
						2.0,
						2.0
					]
				},
				"KHR_materials_ior":{
					"ior":1.4500000476837158
				}
			},
			"name":"Concrete.001",
			"normalTexture":{
				"extensions":{
					"KHR_texture_transform":{
						"offset":[
							0,
							0.7999999970197678
						],
						"scale":[
							0.20000000298023224,
							0.20000000298023224
						]
					}
				},
				"index":0,
				"scale":3,
				"texCoord":1
			},
			"pbrMetallicRoughness":{
				"baseColorTexture":{
					"extensions":{
						"KHR_texture_transform":{
							"offset":[
								0,
								0.7999999970197678
							],
							"scale":[
								0.20000000298023224,
								0.20000000298023224
							]
						}
					},
					"index":1,
					"texCoord":1
				},
				"metallicFactor":0,
				"metallicRoughnessTexture":{
					"extensions":{
						"KHR_texture_transform":{
							"offset":[
								0,
								0.7999999970197678
							],
							"scale":[
								0.20000000298023224,
								0.20000000298023224
							]
						}
					},
					"index":2,
					"texCoord":1
				}
			}
		},
		{
			"doubleSided":true,
			"name":"Material.004",
			"pbrMetallicRoughness":{
				"baseColorFactor":[
					0,
					0,
					0,
					1
				],
				"metallicFactor":0,
				"roughnessFactor":0.8999999761581421
			}
		},
		{
			"doubleSided":true,
			"name":"Material",
			"pbrMetallicRoughness":{
				"baseColorFactor":[
					0,
					0,
					0,
					1
				],
				"metallicFactor":0,
				"roughnessFactor":0.8999999761581421
			}
		},
		{
			"doubleSided":true,
			"name":"Material.003",
			"pbrMetallicRoughness":{
				"baseColorFactor":[
					0.321207195520401,
					0,
					0.0014926498988643289,
					1
				],
				"roughnessFactor":0.30829015374183655
			}
		},
		{
			"doubleSided":true,
			"name":"Plain Grey Velvet",
			"normalTexture":{
				"index":3,
				"texCoord":1
			},
			"pbrMetallicRoughness":{
				"baseColorTexture":{
					"index":4,
					"texCoord":1
				},
				"metallicRoughnessTexture":{
					"index":5,
					"texCoord":1
				}
			}
		},
		{
			"doubleSided":true,
			"extensions":{
				"KHR_materials_specular":{
					"specularColorTexture":{
						"index":6,
						"texCoord":1
					}
				},
				"KHR_materials_ior":{
					"ior":1.4500000476837158
				}
			},
			"name":"Gold metal (Imperfections)",
			"normalTexture":{
				"index":7,
				"texCoord":1
			},
			"pbrMetallicRoughness":{
				"baseColorTexture":{
					"index":8,
					"texCoord":1
				},
				"metallicRoughnessTexture":{
					"index":9,
					"texCoord":1
				}
			}
		},
		{
			"alphaMode":"BLEND",
			"doubleSided":true,
			"name":"Glass",
			"normalTexture":{
				"index":10,
				"scale":0.10000000149011612,
				"texCoord":1
			},
			"pbrMetallicRoughness":{
				"baseColorFactor":[
					0.6443073153495789,
					0.619080126285553,
					0.549913763999939,
					1
				],
				"baseColorTexture":{
					"index":11,
					"texCoord":1
				},
				"metallicRoughnessTexture":{
					"index":12,
					"texCoord":1
				}
			}
		}
	],
	"meshes":[
		{
			"name":"Cube.007",
			"primitives":[
				{
					"attributes":{
						"POSITION":0,
						"NORMAL":1,
						"TEXCOORD_0":2,
						"TEXCOORD_1":3
					},
					"indices":4,
					"material":0
				},
				{
					"attributes":{
						"POSITION":5,
						"NORMAL":6,
						"TEXCOORD_0":7,
						"TEXCOORD_1":8
					},
					"indices":9,
					"material":1
				},
				{
					"attributes":{
						"POSITION":10,
						"NORMAL":11,
						"TEXCOORD_0":12,
						"TEXCOORD_1":13
					},
					"indices":14,
					"material":2
				},
				{
					"attributes":{
						"POSITION":15,
						"NORMAL":16,
						"TEXCOORD_0":17,
						"TEXCOORD_1":18
					},
					"indices":19,
					"material":3
				},
				{
					"attributes":{
						"POSITION":20,
						"NORMAL":21,
						"TEXCOORD_0":22,
						"TEXCOORD_1":23
					},
					"indices":24,
					"material":4
				},
				{
					"attributes":{
						"POSITION":25,
						"NORMAL":26,
						"TEXCOORD_0":27,
						"TEXCOORD_1":28
					},
					"indices":29,
					"material":5
				},
				{
					"attributes":{
						"POSITION":30,
						"NORMAL":31,
						"TEXCOORD_0":32,
						"TEXCOORD_1":33
					},
					"indices":34,
					"material":6
				}
			]
		}
	],
	"textures":[
		{
			"sampler":0,
			"source":0
		},
		{
			"sampler":0,
			"source":1
		},
		{
			"sampler":0,
			"source":2
		},
		{
			"sampler":0,
			"source":3
		},
		{
			"sampler":0,
			"source":4
		},
		{
			"sampler":0,
			"source":5
		},
		{
			"sampler":0,
			"source":6
		},
		{
			"sampler":0,
			"source":7
		},
		{
			"sampler":0,
			"source":8
		},
		{
			"sampler":0,
			"source":9
		},
		{
			"sampler":0,
			"source":10
		},
		{
			"sampler":0,
			"source":11
		},
		{
			"sampler":0,
			"source":12
		}
	],
	"images":[
		{
			"mimeType":"image/jpeg",
			"name":"betonnormal",
			"uri":"betonnormal.jpg"
		},
		{
			"mimeType":"image/jpeg",
			"name":"betonambientocclusion",
			"uri":"betonambientocclusion.jpg"
		},
		{
			"mimeType":"image/png",
			"name":"betonroughness",
			"uri":"betonroughness.png"
		},
		{
			"mimeType":"image/jpeg",
			"name":"Plain_Grey_Velvet_1672304_nrm",
			"uri":"Plain_Grey_Velvet_1672304_nrm.jpg"
		},
		{
			"mimeType":"image/jpeg",
			"name":"Plain_Grey_Velvet_1672304_col",
			"uri":"Plain_Grey_Velvet_1672304_col.jpg"
		},
		{
			"mimeType":"image/png",
			"name":"Plain_Grey_Velvet_1672304_met-Plain_Grey_Velvet_1672304_rough",
			"uri":"Plain_Grey_Velvet_1672304_met-Plain_Grey_Velvet_1672304_rough.png"
		},
		{
			"mimeType":"image/jpeg",
			"name":"specu ",
			"uri":"specu%20.jpg"
		},
		{
			"mimeType":"image/jpeg",
			"name":"normal ",
			"uri":"normal%20.jpg"
		},
		{
			"mimeType":"image/jpeg",
			"name":"basecolor",
			"uri":"basecolor.jpg"
		},
		{
			"mimeType":"image/png",
			"name":"Metallic-Rough",
			"uri":"Metallic-Rough.png"
		},
		{
			"mimeType":"image/jpeg",
			"name":"garage_floor_nor_gl_4k",
			"uri":"garage_floor_nor_gl_4k.jpg"
		},
		{
			"mimeType":"image/png",
			"name":"SP_2K_Roughness",
			"uri":"SP_2K_Roughness.png"
		},
		{
			"mimeType":"image/png",
			"name":"SP_2K_Roughness",
			"uri":"SP_2K_Roughness-1.png"
		}
	],
	"accessors":[
		{
			"bufferView":0,
			"componentType":5126,
			"count":80,
			"max":[
				3.3598439693450928,
				2,
				3.3571295738220215
			],
			"min":[
				-3.3598439693450928,
				0,
				-3.3571295738220215
			],
			"type":"VEC3"
		},
		{
			"bufferView":1,
			"componentType":5126,
			"count":80,
			"type":"VEC3"
		},
		{
			"bufferView":2,
			"componentType":5126,
			"count":80,
			"type":"VEC2"
		},
		{
			"bufferView":3,
			"componentType":5126,
			"count":80,
			"type":"VEC2"
		},
		{
			"bufferView":4,
			"componentType":5123,
			"count":132,
			"type":"SCALAR"
		},
		{
			"bufferView":5,
			"componentType":5126,
			"count":11293,
			"max":[
				2.0418736934661865,
				10.67570686340332,
				0.15869253873825073
			],
			"min":[
				-2.0418736934661865,
				7.443629264831543,
				-2.103562593460083
			],
			"type":"VEC3"
		},
		{
			"bufferView":6,
			"componentType":5126,
			"count":11293,
			"type":"VEC3"
		},
		{
			"bufferView":7,
			"componentType":5126,
			"count":11293,
			"type":"VEC2"
		},
		{
			"bufferView":8,
			"componentType":5126,
			"count":11293,
			"type":"VEC2"
		},
		{
			"bufferView":9,
			"componentType":5123,
			"count":64152,
			"type":"SCALAR"
		},
		{
			"bufferView":10,
			"componentType":5126,
			"count":5120,
			"max":[
				0.9154789447784424,
				7.658177852630615,
				-0.22493577003479004
			],
			"min":[
				-0.9154789447784424,
				6.850571155548096,
				-0.7845959663391113
			],
			"type":"VEC3"
		},
		{
			"bufferView":11,
			"componentType":5126,
			"count":5120,
			"type":"VEC3"
		},
		{
			"bufferView":12,
			"componentType":5126,
			"count":5120,
			"type":"VEC2"
		},
		{
			"bufferView":13,
			"componentType":5126,
			"count":5120,
			"type":"VEC2"
		},
		{
			"bufferView":14,
			"componentType":5123,
			"count":7680,
			"type":"SCALAR"
		},
		{
			"bufferView":15,
			"componentType":5126,
			"count":660,
			"max":[
				2.187429189682007,
				9.217543601989746,
				-0.8841328620910645
			],
			"min":[
				-2.187429189682007,
				7.351079940795898,
				-2.6683871746063232
			],
			"type":"VEC3"
		},
		{
			"bufferView":16,
			"componentType":5126,
			"count":660,
			"type":"VEC3"
		},
		{
			"bufferView":17,
			"componentType":5126,
			"count":660,
			"type":"VEC2"
		},
		{
			"bufferView":18,
			"componentType":5126,
			"count":660,
			"type":"VEC2"
		},
		{
			"bufferView":19,
			"componentType":5123,
			"count":3936,
			"type":"SCALAR"
		},
		{
			"bufferView":20,
			"componentType":5126,
			"count":1696,
			"max":[
				1.6443967819213867,
				11.026383399963379,
				0.18962007761001587
			],
			"min":[
				-1.644395112991333,
				1.6075069904327393,
				-3.259883165359497
			],
			"type":"VEC3"
		},
		{
			"bufferView":21,
			"componentType":5126,
			"count":1696,
			"type":"VEC3"
		},
		{
			"bufferView":22,
			"componentType":5126,
			"count":1696,
			"type":"VEC2"
		},
		{
			"bufferView":23,
			"componentType":5126,
			"count":1696,
			"type":"VEC2"
		},
		{
			"bufferView":24,
			"componentType":5123,
			"count":2688,
			"type":"SCALAR"
		},
		{
			"bufferView":25,
			"componentType":5126,
			"count":417,
			"max":[
				0.8858356475830078,
				7.288364410400391,
				-1.082950234413147
			],
			"min":[
				-0.8858356475830078,
				5.780772686004639,
				-2.070253372192383
			],
			"type":"VEC3"
		},
		{
			"bufferView":26,
			"componentType":5126,
			"count":417,
			"type":"VEC3"
		},
		{
			"bufferView":27,
			"componentType":5126,
			"count":417,
			"type":"VEC2"
		},
		{
			"bufferView":28,
			"componentType":5126,
			"count":417,
			"type":"VEC2"
		},
		{
			"bufferView":29,
			"componentType":5123,
			"count":672,
			"type":"SCALAR"
		},
		{
			"bufferView":30,
			"componentType":5126,
			"count":984,
			"max":[
				18.533573150634766,
				-0.011470794677734375,
				5.303915500640869
			],
			"min":[
				-18.533573150634766,
				-13.485726356506348,
				-5.303915500640869
			],
			"type":"VEC3"
		},
		{
			"bufferView":31,
			"componentType":5126,
			"count":984,
			"type":"VEC3"
		},
		{
			"bufferView":32,
			"componentType":5126,
			"count":984,
			"type":"VEC2"
		},
		{
			"bufferView":33,
			"componentType":5126,
			"count":984,
			"type":"VEC2"
		},
		{
			"bufferView":34,
			"componentType":5123,
			"count":2400,
			"type":"SCALAR"
		}
	],
	"bufferViews":[
		{
			"buffer":0,
			"byteLength":960,
			"byteOffset":0,
			"target":34962
		},
		{
			"buffer":0,
			"byteLength":960,
			"byteOffset":960,
			"target":34962
		},
		{
			"buffer":0,
			"byteLength":640,
			"byteOffset":1920,
			"target":34962
		},
		{
			"buffer":0,
			"byteLength":640,
			"byteOffset":2560,
			"target":34962
		},
		{
			"buffer":0,
			"byteLength":264,
			"byteOffset":3200,
			"target":34963
		},
		{
			"buffer":0,
			"byteLength":135516,
			"byteOffset":3464,
			"target":34962
		},
		{
			"buffer":0,
			"byteLength":135516,
			"byteOffset":138980,
			"target":34962
		},
		{
			"buffer":0,
			"byteLength":90344,
			"byteOffset":274496,
			"target":34962
		},
		{
			"buffer":0,
			"byteLength":90344,
			"byteOffset":364840,
			"target":34962
		},
		{
			"buffer":0,
			"byteLength":128304,
			"byteOffset":455184,
			"target":34963
		},
		{
			"buffer":0,
			"byteLength":61440,
			"byteOffset":583488,
			"target":34962
		},
		{
			"buffer":0,
			"byteLength":61440,
			"byteOffset":644928,
			"target":34962
		},
		{
			"buffer":0,
			"byteLength":40960,
			"byteOffset":706368,
			"target":34962
		},
		{
			"buffer":0,
			"byteLength":40960,
			"byteOffset":747328,
			"target":34962
		},
		{
			"buffer":0,
			"byteLength":15360,
			"byteOffset":788288,
			"target":34963
		},
		{
			"buffer":0,
			"byteLength":7920,
			"byteOffset":803648,
			"target":34962
		},
		{
			"buffer":0,
			"byteLength":7920,
			"byteOffset":811568,
			"target":34962
		},
		{
			"buffer":0,
			"byteLength":5280,
			"byteOffset":819488,
			"target":34962
		},
		{
			"buffer":0,
			"byteLength":5280,
			"byteOffset":824768,
			"target":34962
		},
		{
			"buffer":0,
			"byteLength":7872,
			"byteOffset":830048,
			"target":34963
		},
		{
			"buffer":0,
			"byteLength":20352,
			"byteOffset":837920,
			"target":34962
		},
		{
			"buffer":0,
			"byteLength":20352,
			"byteOffset":858272,
			"target":34962
		},
		{
			"buffer":0,
			"byteLength":13568,
			"byteOffset":878624,
			"target":34962
		},
		{
			"buffer":0,
			"byteLength":13568,
			"byteOffset":892192,
			"target":34962
		},
		{
			"buffer":0,
			"byteLength":5376,
			"byteOffset":905760,
			"target":34963
		},
		{
			"buffer":0,
			"byteLength":5004,
			"byteOffset":911136,
			"target":34962
		},
		{
			"buffer":0,
			"byteLength":5004,
			"byteOffset":916140,
			"target":34962
		},
		{
			"buffer":0,
			"byteLength":3336,
			"byteOffset":921144,
			"target":34962
		},
		{
			"buffer":0,
			"byteLength":3336,
			"byteOffset":924480,
			"target":34962
		},
		{
			"buffer":0,
			"byteLength":1344,
			"byteOffset":927816,
			"target":34963
		},
		{
			"buffer":0,
			"byteLength":11808,
			"byteOffset":929160,
			"target":34962
		},
		{
			"buffer":0,
			"byteLength":11808,
			"byteOffset":940968,
			"target":34962
		},
		{
			"buffer":0,
			"byteLength":7872,
			"byteOffset":952776,
			"target":34962
		},
		{
			"buffer":0,
			"byteLength":7872,
			"byteOffset":960648,
			"target":34962
		},
		{
			"buffer":0,
			"byteLength":4800,
			"byteOffset":968520,
			"target":34963
		}
	],
	"samplers":[
		{
			"magFilter":9729,
			"minFilter":9987
		}
	],
	"buffers":[
		{
			"byteLength":973320,
			"uri":"mask.bin"
		}
	]
}
